<svg xmlns="http://www.w3.org/2000/svg" xmlns:xlink="http://www.w3.org/1999/xlink" width="1600" zoomAndPan="magnify" viewBox="0 0 1200 149.999998" height="200" preserveAspectRatio="xMidYMid meet" version="1.0"><defs><g/><clipPath id="d7b5457b6d"><rect x="0" width="1196" y="0" height="150"/></clipPath></defs><g transform="matrix(1, 0, 0, 1, 0, -0.000000000000007527)"><g clip-path="url(#d7b5457b6d)"><g fill="#000000" fill-opacity="1"><g transform="translate(-1.936188, 141.608878)"><g><path d="M 90.625 0 L 134.890625 -46.75 L 86.984375 0 L 68.78125 2.875 L 72.046875 -0.390625 L 59.96875 -0.1875 L 97.140625 -38.515625 L 106.34375 -38.328125 L 106.53125 -46.375 L 129.71875 -71.28125 L 104.421875 -48.09375 L 89.296875 -45.609375 L 127.609375 -83.921875 L 133.75 -75.6875 L 135.078125 -77.03125 L 146.390625 -68.59375 L 144.46875 -66.875 L 146 -57.671875 L 143.703125 -55.5625 L 142.9375 -42.734375 L 115.15625 -14.171875 L 144.671875 -41.96875 L 146.390625 -29.515625 L 117.453125 -0.578125 L 102.515625 -1.15625 L 101.359375 0 Z M 8.4375 -98.296875 L 43.6875 -134.703125 L 55.1875 -137 L 21.265625 -99.640625 L 58.828125 -133.546875 L 69.171875 -134.3125 L 39.09375 -102.515625 L 73.578125 -133.546875 L 86.984375 -134.515625 L 48.671875 -95.8125 L 47.90625 -95.8125 L 47.140625 -96.375 L 14.5625 -61.703125 L 9.578125 -67.0625 L 6.328125 -73 L 9 -75.296875 L 7.46875 -87.1875 L 9.578125 -89.09375 Z M 114.96875 -86.21875 L 125.5 -86.21875 L 128.375 -86.03125 L 90.4375 -47.90625 L 77.03125 -50.203125 L 74.921875 -47.90625 L 60.359375 -48.484375 L 45.609375 -46.171875 L 85.453125 -86.03125 L 100.78125 -86.796875 L 100.59375 -86.609375 L 111.328125 -87.1875 L 83.921875 -57.671875 Z M 50.015625 -94.84375 L 88.53125 -134.125 L 103.859375 -134.3125 L 103.46875 -133.9375 L 115.921875 -133.171875 L 92.171875 -109.21875 L 118.796875 -133.9375 L 129.53125 -132.203125 L 93.890625 -95.421875 L 78.9375 -95.8125 L 78.5625 -95.421875 L 67.453125 -97.140625 L 92.734375 -123.78125 L 63.609375 -95.8125 Z M 15.90625 -1.15625 L 52.3125 -38.328125 L 65.140625 -39.65625 L 43.296875 -16.671875 L 67.453125 -38.890625 L 82.015625 -39.46875 L 42.34375 0.1875 L 29.3125 -1.71875 L 27.40625 0.1875 Z M 28.9375 -47.90625 L 23 -52.5 L 55.765625 -86.796875 L 67.640625 -88.53125 L 38.703125 -56.71875 L 70.703125 -86.21875 L 84.6875 -87.1875 L 46.171875 -47.515625 L 31.234375 -48.484375 L 30.65625 -47.90625 Z M 9.96875 -25.09375 L 22.421875 -37.75 L 36.984375 -38.890625 L 36.78125 -38.703125 L 52.890625 -40.8125 L 12.453125 0 L 9.765625 0.1875 L 10.15625 -10.53125 L 36.78125 -38.703125 L 9.390625 -12.078125 Z M 41.390625 1.34375 L 81.8125 -38.703125 L 93.125 -40.046875 L 57.09375 0.390625 Z M 132.78125 -134.125 L 144.671875 -134.125 L 142.9375 -132.015625 L 108.640625 -96 L 96 -97.34375 Z M 107.296875 -94.265625 L 144.671875 -131.25 L 144.28125 -118.03125 L 123.390625 -95.609375 Z M 9.390625 -115.734375 L 28.734375 -134.125 L 41.390625 -132.59375 L 10.15625 -100.984375 Z M 47.703125 -93.703125 L 47.703125 -86.03125 L 53.65625 -87.953125 L 22.234375 -54.796875 L 16.28125 -61.3125 Z M 124.546875 -95.234375 L 144.859375 -116.3125 L 144.671875 -102.515625 L 138.15625 -95.8125 Z M 125.5 0.1875 L 117.078125 1.15625 L 144.671875 -26.828125 L 144.28125 -18.59375 Z M 9.390625 -26.4375 L 9.203125 -38.328125 L 21.078125 -38.125 Z M 144.46875 -95.8125 L 139.484375 -95.609375 L 144.46875 -100.984375 Z M 144.46875 -95.8125 "/></g></g></g><g fill="#000000" fill-opacity="1"><g transform="translate(145.409152, 141.608878)"><g><path d="M 17.4375 -73 L 53.453125 -112.46875 L 54.21875 -97.53125 L 53.453125 -96.765625 L 55.375 -85.84375 L 34.296875 -64.375 L 53.078125 -82.015625 L 55.5625 -67.25 L 53.453125 -65.34375 L 54.21875 -55.1875 L 17.046875 -17.4375 L 15.328125 -19.15625 L 16.671875 -30.65625 L 30.65625 -44.84375 L 14.75 -30.46875 L 15.140625 -45.03125 L 13.03125 -59.96875 L 16.09375 -62.84375 Z M 92.734375 -2.484375 L 106.15625 -15.90625 L 89.484375 -0.390625 L 77.21875 -0.1875 L 114 -38.328125 L 114.96875 -38.328125 L 115.15625 -37.5625 L 153.484375 -78.171875 L 157.5 -63.234375 L 152.90625 -58.828125 L 151.953125 -51.34375 L 103.46875 0.578125 Z M 115.15625 -84.3125 L 152.90625 -122.4375 L 153.28125 -107.296875 L 153.484375 -107.5 L 153.671875 -94.65625 L 114.390625 -55.1875 L 116.109375 -67.640625 L 151.953125 -105.765625 L 114.578125 -70.890625 Z M 34.484375 -2.296875 L 69.359375 -38.328125 L 82.390625 -36.984375 L 83.546875 -38.125 L 96.375 -39.65625 L 58.828125 -0.390625 L 46.171875 1.34375 L 67.0625 -20.6875 L 44.0625 0 L 34.484375 0 Z M 116.109375 -114.96875 L 135.28125 -133.9375 L 148.875 -132.984375 L 150.03125 -134.125 L 153.28125 -134.515625 L 151.953125 -122.0625 L 114.96875 -84.890625 L 113.234375 -98.671875 L 120.328125 -105.390625 L 115.15625 -100.78125 Z M 122.0625 -2.109375 L 132.203125 -12.265625 L 118.984375 0 L 106.34375 2.875 L 152.90625 -48.28125 L 154.25 -32.375 L 152.71875 -31.046875 L 153.859375 -19.359375 L 133.546875 -0.390625 Z M 45.796875 -134.125 L 53.65625 -134.125 L 54.421875 -128.765625 L 15.328125 -90.0625 L 15.328125 -95.8125 L 7.46875 -94.84375 Z M 60.734375 1.15625 L 98.296875 -37.75 L 114.390625 -40.625 L 74.53125 -0.1875 Z M 1.15625 -95.8125 L 2.109375 -105.1875 L 31.234375 -134.125 L 43.875 -136.625 L 6.125 -95.8125 Z M 16.09375 -87.1875 L 53.453125 -127.609375 L 51.546875 -114.203125 L 15.140625 -74.921875 Z M 116.5 -52.125 L 152.90625 -92.734375 L 151.375 -79.328125 L 115.34375 -40.8125 Z M 27.203125 -11.109375 L 54.796875 -38.703125 L 66.484375 -39.28125 L 32 -2.296875 Z M 19.921875 -15.328125 L 53.453125 -53.078125 L 54.609375 -40.8125 L 24.71875 -9.96875 Z M 0 -119.5625 L 15.515625 -134.3125 L 29.515625 -134.890625 L 0.953125 -105 Z M 114.96875 -128.765625 L 119.75 -133.75 L 133.9375 -135.078125 L 114.96875 -115.734375 Z M 0.390625 -120.140625 L 1.15625 -134.515625 L 14.75 -133.75 Z M 114.96875 -130.109375 L 114.96875 -134.125 L 118.984375 -134.125 Z M 114.96875 -130.109375 "/></g></g></g><g fill="#000000" fill-opacity="1"><g transform="translate(301.376798, 141.608878)"><g><path d="M 144.09375 -86.984375 L 124.546875 -67.0625 L 125.5 -65.34375 L 105.390625 -45.984375 L 105.578125 -48.09375 L 95.421875 -49.8125 L 129.140625 -83.546875 L 92.546875 -47.90625 L 79.515625 -49.8125 L 77.609375 -47.90625 L 64.375 -48.484375 L 79.328125 -63.421875 L 62.65625 -47.90625 L 53.65625 -47.703125 L 53.078125 -37.359375 L 54.421875 -38.703125 L 70.125 -40.421875 L 30.078125 -0.578125 L 15.328125 -1.15625 L 14.375 -1.15625 L 14.953125 -1.71875 L 11.3125 -9.390625 L 86.796875 -86.609375 L 100.40625 -84.5 L 102.125 -86.21875 L 105.390625 -86.21875 L 103.859375 -89.296875 L 137.390625 -121.28125 L 143.703125 -114.96875 L 144.09375 -114.96875 L 114.203125 -84.6875 L 143.703125 -112.859375 L 143.90625 -97.90625 L 143.515625 -97.53125 Z M 78.75 -0.1875 L 110.359375 -33.53125 L 73.578125 0.390625 L 62.65625 1.53125 L 98.875 -38.328125 L 105.1875 -38.515625 L 105.578125 -44.0625 L 126.46875 -65.71875 L 136.234375 -57.296875 L 135.65625 -56.71875 L 143.703125 -53.078125 L 141.03125 -50.390625 L 143.515625 -47.90625 L 142.9375 -40.046875 L 103.65625 0 L 91.015625 -1.71875 L 89.296875 0 Z M 16.859375 -45.21875 L 46.9375 -75.296875 L 15.515625 -45.796875 L 20.3125 -57.859375 L 53.453125 -93.890625 L 53.65625 -86.21875 L 55.953125 -84.3125 L 57.484375 -85.84375 L 67.453125 -84.3125 L 48.671875 -64.953125 L 72.046875 -86.796875 L 89.296875 -90.25 L 15.140625 -14.953125 L 11.875 -30.65625 L 15.90625 -34.484375 Z M 1.71875 -118.421875 L 16.484375 -133.75 L 29.890625 -133.9375 L 17.625 -121.671875 L 30.84375 -134.3125 L 42.921875 -131.828125 L 45.21875 -134.3125 L 59.96875 -133.171875 L 60.734375 -133.9375 L 72.421875 -137.578125 L 14.75 -75.109375 L 14.171875 -87.5625 L 38.328125 -111.703125 L 15.328125 -90.0625 L 15.328125 -96 L 9.765625 -94.46875 L 35.453125 -123.390625 L 6.125 -95.8125 L 0.765625 -95.609375 L -0.1875 -105 L 0.765625 -105.953125 Z M 105 -95.609375 L 96.953125 -97.140625 L 96.1875 -96.375 L 81.625 -94.65625 L 100.21875 -113.625 L 81.046875 -96.1875 L 69.171875 -96.375 L 105.765625 -134.125 L 119.1875 -132.984375 L 120.328125 -134.125 L 124.734375 -134.125 L 128 -130.875 L 99.25 -99.828125 L 129.90625 -128.953125 L 136.421875 -123.203125 L 105.1875 -90.625 Z M 17.8125 -70.515625 L 75.296875 -134.125 L 85.265625 -134.703125 L 15.71875 -60.359375 Z M 46.75 -0.953125 L 83.734375 -38.703125 L 97.140625 -38.890625 L 59.96875 0 Z M 32 -2.109375 L 69.171875 -37.75 L 85.078125 -40.625 L 44.265625 -0.578125 Z M 66.296875 -96.375 L 55.375 -96 L 90.828125 -134.515625 L 105.578125 -134.3125 Z M 106.34375 0 L 143.125 -37.9375 L 143.515625 -25.875 L 118.984375 -0.578125 Z M 0.953125 -120.71875 L 1.15625 -133.546875 L 15.140625 -134.3125 Z M 124.734375 0 L 121.28125 -0.953125 L 143.703125 -23.375 L 143.703125 -19.15625 Z M 53.453125 -96 L 53.453125 -93.890625 L 55.375 -96 Z M 53.453125 -96 "/></g></g></g><g fill="#000000" fill-opacity="1"><g transform="translate(447.764091, 141.608878)"><g><path d="M 90.625 0 L 134.890625 -46.75 L 86.984375 0 L 68.78125 2.875 L 72.046875 -0.390625 L 59.96875 -0.1875 L 97.140625 -38.515625 L 106.34375 -38.328125 L 106.53125 -46.375 L 129.71875 -71.28125 L 104.421875 -48.09375 L 89.296875 -45.609375 L 127.609375 -83.921875 L 133.75 -75.6875 L 135.078125 -77.03125 L 146.390625 -68.59375 L 144.46875 -66.875 L 146 -57.671875 L 143.703125 -55.5625 L 142.9375 -42.734375 L 115.15625 -14.171875 L 144.671875 -41.96875 L 146.390625 -29.515625 L 117.453125 -0.578125 L 102.515625 -1.15625 L 101.359375 0 Z M 8.4375 -98.296875 L 43.6875 -134.703125 L 55.1875 -137 L 21.265625 -99.640625 L 58.828125 -133.546875 L 69.171875 -134.3125 L 39.09375 -102.515625 L 73.578125 -133.546875 L 86.984375 -134.515625 L 48.671875 -95.8125 L 47.90625 -95.8125 L 47.140625 -96.375 L 14.5625 -61.703125 L 9.578125 -67.0625 L 6.328125 -73 L 9 -75.296875 L 7.46875 -87.1875 L 9.578125 -89.09375 Z M 114.96875 -86.21875 L 125.5 -86.21875 L 128.375 -86.03125 L 90.4375 -47.90625 L 77.03125 -50.203125 L 74.921875 -47.90625 L 60.359375 -48.484375 L 45.609375 -46.171875 L 85.453125 -86.03125 L 100.78125 -86.796875 L 100.59375 -86.609375 L 111.328125 -87.1875 L 83.921875 -57.671875 Z M 50.015625 -94.84375 L 88.53125 -134.125 L 103.859375 -134.3125 L 103.46875 -133.9375 L 115.921875 -133.171875 L 92.171875 -109.21875 L 118.796875 -133.9375 L 129.53125 -132.203125 L 93.890625 -95.421875 L 78.9375 -95.8125 L 78.5625 -95.421875 L 67.453125 -97.140625 L 92.734375 -123.78125 L 63.609375 -95.8125 Z M 15.90625 -1.15625 L 52.3125 -38.328125 L 65.140625 -39.65625 L 43.296875 -16.671875 L 67.453125 -38.890625 L 82.015625 -39.46875 L 42.34375 0.1875 L 29.3125 -1.71875 L 27.40625 0.1875 Z M 28.9375 -47.90625 L 23 -52.5 L 55.765625 -86.796875 L 67.640625 -88.53125 L 38.703125 -56.71875 L 70.703125 -86.21875 L 84.6875 -87.1875 L 46.171875 -47.515625 L 31.234375 -48.484375 L 30.65625 -47.90625 Z M 9.96875 -25.09375 L 22.421875 -37.75 L 36.984375 -38.890625 L 36.78125 -38.703125 L 52.890625 -40.8125 L 12.453125 0 L 9.765625 0.1875 L 10.15625 -10.53125 L 36.78125 -38.703125 L 9.390625 -12.078125 Z M 41.390625 1.34375 L 81.8125 -38.703125 L 93.125 -40.046875 L 57.09375 0.390625 Z M 132.78125 -134.125 L 144.671875 -134.125 L 142.9375 -132.015625 L 108.640625 -96 L 96 -97.34375 Z M 107.296875 -94.265625 L 144.671875 -131.25 L 144.28125 -118.03125 L 123.390625 -95.609375 Z M 9.390625 -115.734375 L 28.734375 -134.125 L 41.390625 -132.59375 L 10.15625 -100.984375 Z M 47.703125 -93.703125 L 47.703125 -86.03125 L 53.65625 -87.953125 L 22.234375 -54.796875 L 16.28125 -61.3125 Z M 124.546875 -95.234375 L 144.859375 -116.3125 L 144.671875 -102.515625 L 138.15625 -95.8125 Z M 125.5 0.1875 L 117.078125 1.15625 L 144.671875 -26.828125 L 144.28125 -18.59375 Z M 9.390625 -26.4375 L 9.203125 -38.328125 L 21.078125 -38.125 Z M 144.46875 -95.8125 L 139.484375 -95.609375 L 144.46875 -100.984375 Z M 144.46875 -95.8125 "/></g></g></g><g fill="#000000" fill-opacity="1"><g transform="translate(595.109431, 141.608878)"><g><path d="M 11.3125 -57.671875 L 24.90625 -71.28125 L 10.15625 -57.09375 L 7.859375 -69.9375 L 9 -71.09375 L 73.390625 -133.75 L 87.5625 -135.84375 L 70.125 -118.03125 L 87.953125 -134.703125 L 103.65625 -136.234375 L 83.34375 -115.546875 L 102.703125 -133.75 L 116.5 -132.78125 L 117.84375 -134.125 L 129.71875 -134.3125 L 93.703125 -95.8125 L 81.25 -93.703125 L 106.34375 -121.28125 L 77.796875 -95.8125 L 65.90625 -97.90625 L 63.421875 -95.234375 L 49.4375 -96.578125 L 48.671875 -95.8125 L 47.90625 -95.8125 L 49.4375 -95.234375 L 47.328125 -93.125 L 48.28125 -78.9375 L 48.28125 -78.75 L 47.90625 -64 L 47.328125 -63.421875 L 47.328125 -50.578125 L 13.21875 -15.515625 L 9.578125 -19.359375 L 10.34375 -27.203125 L 36.40625 -53.078125 L 9.390625 -27.59375 L 7.46875 -41 L 9.203125 -42.53125 Z M 22.796875 -7.671875 L 52.5 -38.328125 L 65.53125 -37.171875 L 66.875 -38.703125 L 80.859375 -37.171875 L 81.8125 -38.125 L 95.03125 -36.78125 L 96.578125 -38.328125 L 110.359375 -36.40625 L 71.65625 -0.390625 L 58.625 -0.390625 L 73.765625 -15.515625 L 57.671875 -0.390625 L 44.453125 -0.390625 L 72.8125 -29.125 L 42.921875 -0.1875 L 30.84375 0.765625 L 52.5 -22.796875 L 28.171875 -0.953125 Z M 10.53125 -116.109375 L 28.171875 -133.546875 L 42.921875 -134.125 L 43.296875 -134.515625 L 56.53125 -132.015625 L 58.4375 -133.75 L 70.328125 -137 L 9 -71.09375 L 11.3125 -87.1875 L 26.640625 -102.3125 L 9.578125 -86.609375 L 10.15625 -98.109375 L 40.8125 -131.828125 L 9.203125 -101.9375 Z M 113.8125 -76.453125 L 116.109375 -83.921875 L 147.734375 -119.1875 L 152.328125 -114.96875 L 154.046875 -110.5625 L 151.953125 -108.453125 L 152.328125 -95.421875 L 133.9375 -76.0625 L 119.5625 -77.21875 L 118.984375 -76.640625 Z M 74.53125 -0.1875 L 112.28125 -38.328125 L 124.734375 -38.328125 L 86.984375 0.1875 Z M 89.484375 1.53125 L 126.84375 -38.328125 L 140.640625 -38.890625 L 101.359375 0.390625 Z M 95.609375 -96.765625 L 132.984375 -134.515625 L 139.484375 -127.796875 L 108.828125 -95.8125 Z M 141.40625 -38.328125 L 147.546875 -38.125 L 146.203125 -30.65625 L 117.265625 -0.1875 L 104.625 -1.53125 Z M 14.953125 -17.046875 L 47.703125 -49.046875 L 47.90625 -38.328125 L 52.6875 -40.234375 L 20.3125 -8.4375 Z M 114 -95.8125 L 109.21875 -95.03125 L 140.828125 -126.46875 L 148.109375 -121.671875 L 114.203125 -86.796875 Z M 118.984375 0 L 146.96875 -28.9375 L 147.34375 -16.484375 L 131.640625 -0.578125 Z M 134.3125 -76.0625 L 152.328125 -94.078125 L 152.328125 -80.28125 L 148.875 -76.453125 Z M 132.984375 -0.578125 L 147.34375 -14.375 L 147.34375 -0.765625 L 147.15625 0.578125 Z M 152.328125 -76.640625 L 150.03125 -76.640625 L 152.328125 -78.9375 Z M 152.328125 -76.640625 "/></g></g></g><g fill="#000000" fill-opacity="1"><g transform="translate(750.11903, 141.608878)"><g><path d="M 9 -57.859375 L 9.390625 -58.25 L 12.078125 -72.8125 L 73.578125 -133.546875 L 86.984375 -134.515625 L 48.671875 -95.8125 L 47.90625 -95.8125 L 46.9375 -96.765625 L 22.234375 -70.328125 L 47.328125 -93.890625 L 49.625 -79.328125 L 47.515625 -77.21875 L 47.90625 -63.8125 L 50.015625 -50.390625 L 47.703125 -48.09375 L 47.90625 -38.328125 L 50.578125 -36.40625 L 20.125 -8.234375 L 11.6875 -12.640625 L 34.296875 -35.453125 L 13.21875 -15.515625 L 9.765625 -18.96875 L 9 -28.171875 L 9.390625 -28.546875 L 11.109375 -41.578125 L 31.234375 -61.890625 L 10.15625 -41.96875 L 9 -56.140625 Z M 118.796875 -38.328125 L 118.984375 -43.5 L 157.3125 -84.109375 L 161.71875 -68.984375 L 155.96875 -63.609375 L 153.484375 -53.078125 L 125.890625 -24.328125 L 156.546875 -53.84375 L 158.65625 -40.421875 L 117.265625 0.578125 L 102.515625 0 L 102.125 0.390625 L 89.09375 -2.109375 L 87.375 -0.390625 L 74.921875 -0.1875 L 111.90625 -38.515625 Z M 47.90625 -93.890625 L 88.328125 -133.9375 L 104.046875 -135.28125 L 100.984375 -132.203125 L 103.078125 -134.125 L 115.34375 -134.703125 L 89.296875 -107.6875 L 118.796875 -133.75 L 129.71875 -134.125 L 93.3125 -96.375 L 79.703125 -97.71875 L 78.171875 -96.1875 L 65.71875 -97.140625 L 64.1875 -95.609375 Z M 22.796875 -9.390625 L 52.6875 -37.9375 L 66.6875 -40.421875 L 33.34375 -6.328125 L 67.0625 -38.328125 L 80.671875 -37.359375 L 42.53125 0 L 28.546875 -1.34375 L 28.171875 -0.953125 Z M 117.84375 -74.15625 L 157.125 -113.4375 L 155.96875 -102.125 L 125.890625 -69.9375 L 157.5 -99.0625 L 155.390625 -85.84375 L 118.984375 -47.140625 L 116.5 -61.3125 L 118.21875 -62.84375 Z M 118.796875 -95.8125 L 107.5 -94.46875 L 108.453125 -95.421875 L 96 -97.140625 L 132.984375 -134.125 L 137.953125 -134.3125 L 143.703125 -129.34375 L 142.9375 -128.765625 L 149.453125 -123.96875 L 118.796875 -91.390625 Z M 8.4375 -100.21875 L 44.0625 -134.703125 L 55.5625 -131.4375 L 9 -86.796875 Z M 10.921875 -85.265625 L 58.4375 -133.75 L 69.359375 -136.8125 L 9.578125 -71.65625 Z M 45.609375 -0.1875 L 82.203125 -37.9375 L 98.109375 -39.65625 L 57.296875 0 Z M 59.78125 -1.15625 L 96.953125 -37.9375 L 108.0625 -36.984375 L 72.421875 -0.578125 Z M 150.40625 -121.859375 L 155.59375 -116.109375 L 118.796875 -76.265625 L 120.90625 -92.171875 Z M 117.84375 1.15625 L 157.3125 -39.09375 L 156.15625 -26.4375 L 132.203125 -0.578125 Z M 9.96875 -114.390625 L 28.734375 -134.515625 L 41.96875 -135.46875 L 9.578125 -101.9375 Z M 137.953125 0 L 134.3125 0.953125 L 157.125 -24.140625 L 156.546875 -18.390625 Z M 137.953125 0 "/></g></g></g><g fill="#000000" fill-opacity="1"><g transform="translate(909.918806, 141.608878)"><g><path d="M 137.1875 -121.28125 L 143.703125 -114.96875 L 145.4375 -113.4375 L 144.09375 -112.28125 L 148.3125 -98.109375 L 142.5625 -92.734375 L 140.0625 -82.203125 L 112.28125 -53.265625 L 143.125 -82.96875 L 145.234375 -69.546875 L 103.28125 -28.171875 L 88.71875 -28.734375 L 88.328125 -28.359375 L 75.296875 -30.84375 L 73.578125 -29.125 L 61.125 -28.9375 L 98.109375 -67.25 L 105.1875 -67.0625 L 105.390625 -72.421875 L 132.59375 -101.359375 L 105.765625 -75.875 L 104.8125 -91.390625 L 105.1875 -91.78125 L 105.1875 -96 L 96.1875 -96.578125 L 95.421875 -95.8125 L 81.046875 -96.375 L 80.09375 -95.421875 L 68.78125 -98.109375 L 91.390625 -120.90625 L 65.53125 -96.375 L 51.546875 -96.375 L 51.34375 -96.1875 L 37.9375 -96.1875 L 75.5 -133.9375 L 88.90625 -132.59375 L 90.828125 -134.3125 L 103.28125 -132.984375 L 104.8125 -134.515625 L 118.984375 -132.78125 L 120.328125 -134.125 L 124.734375 -134.3125 L 127.421875 -130.296875 L 100.59375 -101.359375 L 129.90625 -128.5625 L 138.71875 -124.15625 L 119.75 -105.1875 Z M 42.921875 -86.03125 L 53.65625 -86.21875 L 53.078125 -84.3125 L 31.8125 -62.078125 L 53.078125 -82.015625 L 55.375 -67.453125 L 69.171875 -69.75 L 15.140625 -14.953125 L 13.03125 -30.078125 L 14.75 -31.609375 L 15.140625 -46.375 L 15.90625 -47.140625 L 15.90625 -59.59375 Z M 18.390625 -2.6875 L 83.15625 -66.296875 L 96.578125 -67.453125 L 58.25 -28.734375 L 53.65625 -28.734375 L 53.078125 -25.09375 L 28.9375 0.578125 Z M 16.859375 -14.171875 L 68.015625 -66.484375 L 78.75 -69.546875 L 15.515625 -0.765625 Z M 124.734375 -28.734375 L 118.984375 -29.890625 L 118.21875 -29.125 L 106.34375 -29.125 L 144.09375 -68.21875 L 145.234375 -53.65625 L 143.703125 -52.3125 L 144.09375 -47.90625 Z M 9.578125 -95.03125 L 45.609375 -134.515625 L 59.96875 -132.984375 L 21.65625 -96 Z M 0.765625 -95.8125 L 0.953125 -103.078125 L 30.46875 -134.125 L 45.984375 -135.28125 L 6.125 -95.8125 Z M 23.5625 -96 L 61.3125 -134.125 L 73.578125 -134.125 L 35.828125 -95.609375 Z M 1.71875 -120.140625 L 16.484375 -133.75 L 30.078125 -135.65625 L 1.53125 -106.15625 Z M 15.140625 -73.390625 L 27.78125 -86.21875 L 40.234375 -87.1875 L 15.90625 -60.9375 Z M 29.703125 1.34375 L 53.65625 -23 L 53.65625 -8.8125 L 43.875 -0.1875 Z M 0.390625 -120.140625 L 1.34375 -133.9375 L 13.796875 -133.546875 Z M 15.328125 -75.296875 L 15.328125 -86.609375 L 26.25 -86.609375 Z M 53.84375 0.1875 L 45.796875 0 L 53.65625 -7.671875 Z M 53.84375 0.1875 "/></g></g></g><g fill="#000000" fill-opacity="1"><g transform="translate(1052.47397, 141.608878)"><g><path d="M 18.390625 -1.34375 L 50.96875 -35.453125 L 15.328125 -1.15625 L 11.3125 -9.390625 L 48.859375 -47.703125 L 14.953125 -15.90625 L 15.515625 -29.890625 L 72.046875 -86.21875 L 83.34375 -83.15625 L 86.796875 -86.609375 L 100.59375 -84.5 L 102.3125 -86.21875 L 115.34375 -87.5625 L 77.40625 -47.703125 L 66.109375 -49.046875 L 87.75 -71.28125 L 62.65625 -47.90625 L 53.65625 -47.703125 L 53.078125 -37.5625 L 53.65625 -38.125 L 66.875 -37.171875 L 54.03125 -24.140625 L 68.78125 -38.125 L 84.109375 -39.28125 L 64 -19.359375 L 84.109375 -38.515625 L 95.234375 -39.09375 L 69.75 -11.5 L 99.25 -38.703125 L 113.8125 -39.28125 L 74.15625 0.1875 L 60.9375 -1.921875 L 59.203125 0 L 45.03125 -0.578125 L 44.84375 -0.390625 L 30.65625 -0.765625 L 29.703125 0.390625 Z M 0 -118.21875 L 15.90625 -134.3125 L 29.125 -132.203125 L 31.234375 -134.515625 L 46.375 -134.515625 L 45.40625 -133.75 L 59.015625 -132.59375 L 60.359375 -134.125 L 71.09375 -134.515625 L 15.71875 -75.109375 L 17.25 -86.21875 L 45.40625 -117.453125 L 15.328125 -90.0625 L 15.328125 -96 L 9.578125 -95.03125 L 42.34375 -130.671875 L 6.125 -95.8125 L 0.953125 -95.8125 L 2.6875 -103.078125 L 28.171875 -131.25 L 0.390625 -105.765625 Z M 12.84375 -45.21875 L 16.671875 -48.859375 L 20.3125 -57.859375 L 53.453125 -93.890625 L 53.65625 -86.21875 L 55.1875 -84.890625 L 57.09375 -86.796875 L 73.765625 -89.484375 L 15.140625 -29.890625 Z M 75.6875 0.953125 L 114 -38.125 L 129.34375 -38.515625 L 129.140625 -38.328125 L 139.875 -38.328125 L 140.640625 -36.59375 L 104.625 0.390625 L 89.671875 -0.578125 L 89.09375 0 Z M 64.953125 -94.65625 L 82.390625 -111.90625 L 66.296875 -96.375 L 55.375 -96 L 90.828125 -134.515625 L 105 -134.3125 L 105.1875 -134.515625 L 116.5 -135.84375 L 80.671875 -95.609375 Z M 17.25 -71.46875 L 75.875 -134.125 L 89.859375 -135.078125 L 14.75 -59.96875 Z M 135.28125 -134.125 L 139.875 -133.9375 L 141.796875 -127.03125 L 110.171875 -96.375 L 98.109375 -98.109375 Z M 82.203125 -94.46875 L 120.90625 -134.3125 L 133.359375 -136.625 L 95.234375 -95.609375 Z M 117.265625 -86.21875 L 121.09375 -86.03125 L 121.28125 -77.796875 L 92.9375 -48.484375 L 80.859375 -50.390625 Z M 105 0.953125 L 140.0625 -34.484375 L 139.109375 -21.65625 L 119.5625 -0.578125 Z M 110.75 -96.375 L 139.875 -124.359375 L 139.875 -111.140625 L 125.5 -95.8125 Z M 92.359375 -46.75 L 120.71875 -75.296875 L 120.90625 -60.9375 L 106.53125 -47.515625 Z M 120.140625 -0.765625 L 139.6875 -19.15625 L 140.0625 -5.75 L 133.9375 -0.390625 Z M 0.953125 -120.515625 L 1.15625 -134.3125 L 15.140625 -133.75 Z M 140.265625 -96 L 126.65625 -95.421875 L 139.875 -108.640625 Z M 120.71875 -47.90625 L 108.828125 -48.28125 L 121.09375 -60.359375 Z M 139.875 0 L 135.28125 -0.1875 L 139.875 -4.59375 Z M 53.453125 -96 L 53.453125 -93.890625 L 55.375 -96 Z M 53.453125 -96 "/></g></g></g></g></g></svg>