<svg xmlns="http://www.w3.org/2000/svg" xmlns:xlink="http://www.w3.org/1999/xlink" width="2000" zoomAndPan="magnify" viewBox="0 0 1500 1499.999933" height="2000" preserveAspectRatio="xMidYMid meet" version="1.0"><defs><g/><clipPath id="a36eb31a39"><rect x="0" width="954" y="0" height="1500"/></clipPath></defs><rect x="-150" width="1800" fill="#ffffff" y="-149.999993" height="1799.99992" fill-opacity="1"/><rect x="-150" width="1800" fill="#ffffff" y="-149.999993" height="1799.99992" fill-opacity="1"/><g transform="matrix(1, 0, 0, 1, 284, 0.000000000000112861)"><g clip-path="url(#a36eb31a39)"><g fill="#000000" fill-opacity="1"><g transform="translate(1.317199, 1073.731416)"><g><path d="M 817.71875 -505.25 C 870.476562 -453.84375 896.859375 -388.234375 896.859375 -308.421875 C 896.859375 -201.554688 855.597656 -119.039062 773.078125 -60.875 C 689.210938 -2.707031 580.320312 26.375 446.40625 26.375 C 435.582031 26.375 425.097656 26.035156 414.953125 25.359375 C 404.804688 24.679688 395 24.34375 385.53125 24.34375 L 383.5 14.203125 C 447.070312 -7.441406 493.738281 -29.757812 523.5 -52.75 C 553.257812 -75.75 572.875 -94.015625 582.34375 -107.546875 C 582.34375 -107.546875 583.019531 -108.222656 584.375 -109.578125 C 587.082031 -114.984375 589.453125 -119.375 591.484375 -122.75 C 593.515625 -126.132812 594.53125 -127.828125 594.53125 -127.828125 C 602.644531 -146.765625 606.703125 -169.085938 606.703125 -194.796875 C 606.703125 -221.847656 600.613281 -243.488281 588.4375 -259.71875 C 574.90625 -277.3125 556.644531 -292.191406 533.65625 -304.359375 C 509.300781 -316.535156 481.566406 -327.359375 450.453125 -336.828125 C 419.347656 -346.296875 382.828125 -357.117188 340.890625 -369.296875 C 296.242188 -382.828125 258.367188 -396.351562 227.265625 -409.875 C 194.796875 -422.050781 161.648438 -443.019531 127.828125 -472.78125 C 99.421875 -497.125 76.425781 -527.5625 58.84375 -564.09375 C 41.257812 -599.257812 32.46875 -641.867188 32.46875 -691.921875 C 32.46875 -782.554688 71.019531 -856.28125 148.125 -913.09375 C 225.226562 -969.90625 326.003906 -998.3125 450.453125 -998.3125 C 469.390625 -998.3125 487.3125 -997.296875 504.21875 -995.265625 C 521.132812 -993.242188 538.382812 -990.878906 555.96875 -988.171875 L 555.96875 -976 C 504.5625 -966.53125 463.640625 -953 433.203125 -935.40625 C 402.773438 -917.820312 380.796875 -901.25 367.265625 -885.6875 C 353.734375 -870.132812 346.96875 -862.359375 346.96875 -862.359375 C 332.09375 -844.773438 324.65625 -822.457031 324.65625 -795.40625 C 324.65625 -746.707031 345.625 -711.535156 387.5625 -689.890625 C 429.488281 -666.890625 487.65625 -645.921875 562.0625 -626.984375 C 678.394531 -597.222656 763.613281 -556.644531 817.71875 -505.25 Z M 235.375 -338.859375 C 284.070312 -338.859375 326.003906 -321.269531 361.171875 -286.09375 C 396.347656 -250.925781 413.9375 -208.992188 413.9375 -160.296875 C 413.9375 -110.242188 396.347656 -67.96875 361.171875 -33.46875 C 326.003906 1.019531 284.070312 18.265625 235.375 18.265625 C 185.320312 18.265625 143.046875 1.019531 108.546875 -33.46875 C 74.054688 -67.96875 56.8125 -110.242188 56.8125 -160.296875 C 56.8125 -208.992188 74.054688 -250.925781 108.546875 -286.09375 C 143.046875 -321.269531 185.320312 -338.859375 235.375 -338.859375 Z M 698.015625 -641.1875 C 652.015625 -641.1875 612.78125 -657.421875 580.3125 -689.890625 C 547.851562 -722.359375 531.625 -760.910156 531.625 -805.546875 C 531.625 -851.546875 547.851562 -890.773438 580.3125 -923.234375 C 612.78125 -955.703125 652.015625 -971.9375 698.015625 -971.9375 C 744.003906 -971.9375 782.890625 -955.703125 814.671875 -923.234375 C 846.460938 -890.773438 862.359375 -851.546875 862.359375 -805.546875 C 862.359375 -760.910156 846.460938 -722.359375 814.671875 -689.890625 C 782.890625 -657.421875 744.003906 -641.1875 698.015625 -641.1875 Z M 698.015625 -641.1875 "/></g></g></g></g></g></svg>