<svg xmlns="http://www.w3.org/2000/svg" xmlns:xlink="http://www.w3.org/1999/xlink" width="2000" zoomAndPan="magnify" viewBox="0 0 1500 1499.999933" height="2000" preserveAspectRatio="xMidYMid meet" version="1.0"><defs><g/><clipPath id="6957fb09a8"><rect x="0" width="1274" y="0" height="373"/></clipPath></defs><g transform="matrix(1, 0, 0, 1, 115, 563)"><g clip-path="url(#6957fb09a8)"><g fill="#000000" fill-opacity="1"><g transform="translate(0.898377, 266.728078)"><g><path d="M 113.15625 -69.90625 C 120.445312 -62.789062 124.09375 -53.710938 124.09375 -42.671875 C 124.09375 -27.890625 118.382812 -16.472656 106.96875 -8.421875 C 95.363281 -0.367188 80.296875 3.65625 61.765625 3.65625 C 60.265625 3.65625 58.8125 3.609375 57.40625 3.515625 C 56.007812 3.421875 54.65625 3.375 53.34375 3.375 L 53.0625 1.96875 C 61.863281 -1.03125 68.320312 -4.117188 72.4375 -7.296875 C 76.550781 -10.484375 79.265625 -13.007812 80.578125 -14.875 C 80.578125 -14.875 80.671875 -14.96875 80.859375 -15.15625 C 81.234375 -15.90625 81.5625 -16.515625 81.84375 -16.984375 C 82.125 -17.453125 82.265625 -17.6875 82.265625 -17.6875 C 83.390625 -20.3125 83.953125 -23.398438 83.953125 -26.953125 C 83.953125 -30.691406 83.109375 -33.6875 81.421875 -35.9375 C 79.546875 -38.375 77.019531 -40.429688 73.84375 -42.109375 C 70.46875 -43.796875 66.628906 -45.296875 62.328125 -46.609375 C 58.023438 -47.921875 52.972656 -49.414062 47.171875 -51.09375 C 40.992188 -52.96875 35.753906 -54.84375 31.453125 -56.71875 C 26.953125 -58.394531 22.363281 -61.296875 17.6875 -65.421875 C 13.757812 -68.785156 10.578125 -72.992188 8.140625 -78.046875 C 5.710938 -82.921875 4.5 -88.816406 4.5 -95.734375 C 4.5 -108.273438 9.832031 -118.476562 20.5 -126.34375 C 31.164062 -134.207031 45.109375 -138.140625 62.328125 -138.140625 C 64.953125 -138.140625 67.429688 -138 69.765625 -137.71875 C 72.109375 -137.4375 74.5 -137.109375 76.9375 -136.734375 L 76.9375 -135.046875 C 69.820312 -133.734375 64.15625 -131.859375 59.9375 -129.421875 C 55.726562 -126.992188 52.6875 -124.703125 50.8125 -122.546875 C 48.945312 -120.398438 48.015625 -119.328125 48.015625 -119.328125 C 45.953125 -116.890625 44.921875 -113.800781 44.921875 -110.0625 C 44.921875 -103.320312 47.820312 -98.453125 53.625 -95.453125 C 59.425781 -92.273438 67.472656 -89.375 77.765625 -86.75 C 93.867188 -82.632812 105.664062 -77.019531 113.15625 -69.90625 Z M 32.5625 -46.890625 C 39.300781 -46.890625 45.101562 -44.453125 49.96875 -39.578125 C 54.84375 -34.710938 57.28125 -28.914062 57.28125 -22.1875 C 57.28125 -15.257812 54.84375 -9.40625 49.96875 -4.625 C 45.101562 0.144531 39.300781 2.53125 32.5625 2.53125 C 25.644531 2.53125 19.796875 0.144531 15.015625 -4.625 C 10.242188 -9.40625 7.859375 -15.257812 7.859375 -22.1875 C 7.859375 -28.914062 10.242188 -34.710938 15.015625 -39.578125 C 19.796875 -44.453125 25.644531 -46.890625 32.5625 -46.890625 Z M 96.578125 -88.71875 C 90.210938 -88.71875 84.785156 -90.960938 80.296875 -95.453125 C 75.804688 -99.953125 73.5625 -105.289062 73.5625 -111.46875 C 73.5625 -117.832031 75.804688 -123.257812 80.296875 -127.75 C 84.785156 -132.238281 90.210938 -134.484375 96.578125 -134.484375 C 102.941406 -134.484375 108.320312 -132.238281 112.71875 -127.75 C 117.125 -123.257812 119.328125 -117.832031 119.328125 -111.46875 C 119.328125 -105.289062 117.125 -99.953125 112.71875 -95.453125 C 108.320312 -90.960938 102.941406 -88.71875 96.578125 -88.71875 Z M 96.578125 -88.71875 "/></g></g></g><g fill="#000000" fill-opacity="1"><g transform="translate(132.573982, 266.728078)"><g><path d="M 86.75 -17.40625 C 92.738281 -17.40625 98.171875 -18.90625 103.046875 -21.90625 L 106.40625 -20.21875 L 106.40625 -11.796875 C 106.03125 -11.609375 105.75 -11.421875 105.5625 -11.234375 C 102.570312 -8.609375 99.109375 -6.175781 95.171875 -3.9375 C 90.492188 -1.5 86.191406 0.28125 82.265625 1.40625 C 78.148438 2.53125 72.160156 3.09375 64.296875 3.09375 C 50.816406 3.09375 40.425781 -0.929688 33.125 -8.984375 C 26.019531 -17.222656 22.46875 -28.828125 22.46875 -43.796875 L 22.46875 -104.4375 C 22.46875 -107.8125 21.8125 -110.625 20.5 -112.875 C 19 -115.113281 17.125 -117.078125 14.875 -118.765625 C 13.195312 -120.078125 10.953125 -121.015625 8.140625 -121.578125 C 5.335938 -122.128906 2.71875 -122.5 0.28125 -122.6875 L 0.28125 -132.515625 L 65.421875 -136.171875 L 66.828125 -134.203125 L 66.828125 -44.640625 C 66.828125 -35.285156 68.601562 -28.453125 72.15625 -24.140625 C 75.707031 -19.648438 80.570312 -17.40625 86.75 -17.40625 Z M 173.515625 -14.3125 C 176.128906 -13.9375 178.84375 -13.660156 181.65625 -13.484375 L 181.65625 -3.65625 L 117.359375 0.28125 L 115.390625 -1.6875 L 115.390625 -19.375 L 115.109375 -19.375 L 115.109375 -105.5625 C 115.109375 -108.75 114.457031 -111.554688 113.15625 -113.984375 C 112.03125 -116.421875 110.34375 -118.390625 108.09375 -119.890625 C 106.59375 -120.828125 104.253906 -121.484375 101.078125 -121.859375 C 98.265625 -122.222656 95.269531 -122.5 92.09375 -122.6875 L 92.09375 -132.515625 L 157.515625 -136.171875 L 159.46875 -134.203125 L 159.46875 -30.046875 C 159.46875 -26.859375 160.125 -24.238281 161.4375 -22.1875 C 162.5625 -19.9375 164.34375 -18.0625 166.78125 -16.5625 C 168.457031 -15.4375 170.703125 -14.6875 173.515625 -14.3125 Z M 173.515625 -14.3125 "/></g></g></g><g fill="#000000" fill-opacity="1"><g transform="translate(318.155161, 266.728078)"><g><path d="M -0.84375 -204.390625 L 65.703125 -208.046875 L 67.9375 -205.796875 L 67.9375 -2.25 L 65.421875 0 L 23.296875 -10.109375 L 23.296875 -174.359375 C 23.296875 -177.722656 22.644531 -180.8125 21.34375 -183.625 C 19.84375 -186.613281 17.96875 -188.859375 15.71875 -190.359375 C 14.039062 -191.484375 11.515625 -192.421875 8.140625 -193.171875 C 4.960938 -193.921875 1.96875 -194.390625 -0.84375 -194.578125 Z M 154.140625 -117.640625 C 164.992188 -104.722656 170.421875 -87.316406 170.421875 -65.421875 C 170.421875 -45.203125 163.679688 -28.445312 150.203125 -15.15625 C 136.921875 -1.875 120.078125 4.765625 99.671875 4.765625 C 91.804688 4.765625 84.972656 4.207031 79.171875 3.09375 C 78.234375 2.90625 77.113281 2.625 75.8125 2.25 L 75.8125 -10.390625 L 77.484375 -11.515625 C 79.171875 -10.015625 80.765625 -8.890625 82.265625 -8.140625 C 84.703125 -6.828125 88.070312 -6.171875 92.375 -6.171875 C 101.539062 -6.171875 108.742188 -11.226562 113.984375 -21.34375 C 119.234375 -31.257812 121.859375 -45.390625 121.859375 -63.734375 C 121.859375 -70.660156 121.390625 -77.304688 120.453125 -83.671875 C 119.328125 -89.847656 117.546875 -95.367188 115.109375 -100.234375 C 112.867188 -105.097656 109.78125 -109.03125 105.84375 -112.03125 C 101.726562 -114.832031 96.769531 -116.234375 90.96875 -116.234375 C 85.914062 -116.234375 81.609375 -115.484375 78.046875 -113.984375 L 75.8125 -115.109375 L 75.8125 -124.65625 C 80.300781 -128.03125 84.601562 -130.554688 88.71875 -132.234375 C 95.644531 -135.234375 102.570312 -136.734375 109.5 -136.734375 C 128.40625 -136.734375 143.285156 -130.367188 154.140625 -117.640625 Z M 154.140625 -117.640625 "/></g></g></g><g fill="#000000" fill-opacity="1"><g transform="translate(494.190589, 266.728078)"><g><path d="M 113.15625 -69.90625 C 120.445312 -62.789062 124.09375 -53.710938 124.09375 -42.671875 C 124.09375 -27.890625 118.382812 -16.472656 106.96875 -8.421875 C 95.363281 -0.367188 80.296875 3.65625 61.765625 3.65625 C 60.265625 3.65625 58.8125 3.609375 57.40625 3.515625 C 56.007812 3.421875 54.65625 3.375 53.34375 3.375 L 53.0625 1.96875 C 61.863281 -1.03125 68.320312 -4.117188 72.4375 -7.296875 C 76.550781 -10.484375 79.265625 -13.007812 80.578125 -14.875 C 80.578125 -14.875 80.671875 -14.96875 80.859375 -15.15625 C 81.234375 -15.90625 81.5625 -16.515625 81.84375 -16.984375 C 82.125 -17.453125 82.265625 -17.6875 82.265625 -17.6875 C 83.390625 -20.3125 83.953125 -23.398438 83.953125 -26.953125 C 83.953125 -30.691406 83.109375 -33.6875 81.421875 -35.9375 C 79.546875 -38.375 77.019531 -40.429688 73.84375 -42.109375 C 70.46875 -43.796875 66.628906 -45.296875 62.328125 -46.609375 C 58.023438 -47.921875 52.972656 -49.414062 47.171875 -51.09375 C 40.992188 -52.96875 35.753906 -54.84375 31.453125 -56.71875 C 26.953125 -58.394531 22.363281 -61.296875 17.6875 -65.421875 C 13.757812 -68.785156 10.578125 -72.992188 8.140625 -78.046875 C 5.710938 -82.921875 4.5 -88.816406 4.5 -95.734375 C 4.5 -108.273438 9.832031 -118.476562 20.5 -126.34375 C 31.164062 -134.207031 45.109375 -138.140625 62.328125 -138.140625 C 64.953125 -138.140625 67.429688 -138 69.765625 -137.71875 C 72.109375 -137.4375 74.5 -137.109375 76.9375 -136.734375 L 76.9375 -135.046875 C 69.820312 -133.734375 64.15625 -131.859375 59.9375 -129.421875 C 55.726562 -126.992188 52.6875 -124.703125 50.8125 -122.546875 C 48.945312 -120.398438 48.015625 -119.328125 48.015625 -119.328125 C 45.953125 -116.890625 44.921875 -113.800781 44.921875 -110.0625 C 44.921875 -103.320312 47.820312 -98.453125 53.625 -95.453125 C 59.425781 -92.273438 67.472656 -89.375 77.765625 -86.75 C 93.867188 -82.632812 105.664062 -77.019531 113.15625 -69.90625 Z M 32.5625 -46.890625 C 39.300781 -46.890625 45.101562 -44.453125 49.96875 -39.578125 C 54.84375 -34.710938 57.28125 -28.914062 57.28125 -22.1875 C 57.28125 -15.257812 54.84375 -9.40625 49.96875 -4.625 C 45.101562 0.144531 39.300781 2.53125 32.5625 2.53125 C 25.644531 2.53125 19.796875 0.144531 15.015625 -4.625 C 10.242188 -9.40625 7.859375 -15.257812 7.859375 -22.1875 C 7.859375 -28.914062 10.242188 -34.710938 15.015625 -39.578125 C 19.796875 -44.453125 25.644531 -46.890625 32.5625 -46.890625 Z M 96.578125 -88.71875 C 90.210938 -88.71875 84.785156 -90.960938 80.296875 -95.453125 C 75.804688 -99.953125 73.5625 -105.289062 73.5625 -111.46875 C 73.5625 -117.832031 75.804688 -123.257812 80.296875 -127.75 C 84.785156 -132.238281 90.210938 -134.484375 96.578125 -134.484375 C 102.941406 -134.484375 108.320312 -132.238281 112.71875 -127.75 C 117.125 -123.257812 119.328125 -117.832031 119.328125 -111.46875 C 119.328125 -105.289062 117.125 -99.953125 112.71875 -95.453125 C 108.320312 -90.960938 102.941406 -88.71875 96.578125 -88.71875 Z M 96.578125 -88.71875 "/></g></g></g><g fill="#000000" fill-opacity="1"><g transform="translate(625.866147, 266.728078)"><g><path d="M 130 -42.109375 L 140.109375 -35.09375 C 137.296875 -29.664062 134.019531 -24.707031 130.28125 -20.21875 C 126.34375 -15.726562 121.660156 -11.703125 116.234375 -8.140625 C 110.617188 -4.398438 104.910156 -1.59375 99.109375 0.28125 C 93.304688 2.15625 86.566406 3.09375 78.890625 3.09375 C 66.347656 3.09375 55.304688 1.21875 45.765625 -2.53125 C 36.222656 -6.082031 28.363281 -11.039062 22.1875 -17.40625 C 16.007812 -23.769531 11.328125 -31.257812 8.140625 -39.875 C 5.148438 -48.664062 3.65625 -58.113281 3.65625 -68.21875 C 3.65625 -77.582031 5.523438 -86.476562 9.265625 -94.90625 C 13.003906 -103.320312 18.054688 -110.710938 24.421875 -117.078125 C 30.972656 -123.628906 39.117188 -128.867188 48.859375 -132.796875 C 57.648438 -136.359375 67.566406 -138.328125 78.609375 -138.703125 L 78.890625 -136.734375 C 77.023438 -135.046875 74.546875 -132.46875 71.453125 -129 C 68.367188 -125.539062 65.421875 -121.660156 62.609375 -117.359375 C 59.804688 -113.054688 57.9375 -108.65625 57 -104.15625 C 56.25 -101.726562 55.59375 -99.390625 55.03125 -97.140625 C 53.34375 -89.660156 52.5 -80.582031 52.5 -69.90625 C 52.5 -54 56.242188 -41.085938 63.734375 -31.171875 C 71.222656 -21.429688 80.207031 -16.5625 90.6875 -16.5625 C 100.601562 -16.5625 108.460938 -18.804688 114.265625 -23.296875 C 120.253906 -27.796875 125.5 -34.066406 130 -42.109375 Z M 88.71875 -106.125 C 89.28125 -110.4375 89.375 -114.179688 89 -117.359375 C 88.625 -120.546875 88.25 -122.976562 87.875 -124.65625 L 88.71875 -128.875 L 97.421875 -137.296875 C 106.035156 -136.359375 112.726562 -134.34375 117.5 -131.25 C 122.269531 -128.164062 125.640625 -125.3125 127.609375 -122.6875 C 129.578125 -120.070312 130.5625 -118.765625 130.5625 -118.765625 C 133.175781 -114.835938 134.484375 -110.625 134.484375 -106.125 C 134.484375 -99.757812 132.238281 -94.332031 127.75 -89.84375 C 123.257812 -85.351562 117.925781 -83.109375 111.75 -83.109375 C 105.382812 -83.109375 99.953125 -85.351562 95.453125 -89.84375 C 90.960938 -94.332031 88.71875 -99.757812 88.71875 -106.125 Z M 88.71875 -106.125 "/></g></g></g><g fill="#000000" fill-opacity="1"><g transform="translate(771.860434, 266.728078)"><g><path d="M 57.84375 -107.25 C 55.96875 -102.195312 54.65625 -96.207031 53.90625 -89.28125 C 53.15625 -82.539062 52.78125 -75.425781 52.78125 -67.9375 C 52.78125 -58.207031 53.0625 -50.066406 53.625 -43.515625 C 54.375 -37.148438 55.96875 -30.785156 58.40625 -24.421875 C 60.457031 -18.804688 63.359375 -14.410156 67.109375 -11.234375 C 67.847656 -10.671875 68.59375 -10.109375 69.34375 -9.546875 L 69.625 -7.296875 C 66.257812 -5.796875 62.890625 -4.4375 59.515625 -3.21875 C 56.148438 -2.007812 53.0625 -0.9375 50.25 0 C 41.082031 -3.175781 32.941406 -7.945312 25.828125 -14.3125 C 18.898438 -20.300781 13.472656 -27.695312 9.546875 -36.5 C 5.617188 -45.300781 3.65625 -55.222656 3.65625 -66.265625 C 3.65625 -76.929688 5.335938 -86.476562 8.703125 -94.90625 C 12.253906 -103.320312 17.492188 -110.804688 24.421875 -117.359375 C 30.972656 -123.722656 39.117188 -128.585938 48.859375 -131.953125 C 58.585938 -135.328125 69.535156 -137.015625 81.703125 -137.015625 C 81.890625 -137.015625 82.078125 -137.015625 82.265625 -137.015625 C 82.453125 -137.015625 82.640625 -137.015625 82.828125 -137.015625 L 83.109375 -135.609375 C 79.171875 -133.734375 75.613281 -131.25 72.4375 -128.15625 C 69.257812 -125.070312 66.734375 -122.21875 64.859375 -119.59375 C 62.984375 -116.976562 61.859375 -115.484375 61.484375 -115.109375 C 61.484375 -114.921875 61.484375 -114.828125 61.484375 -114.828125 C 59.984375 -112.585938 58.769531 -110.0625 57.84375 -107.25 Z M 154.703125 -95.171875 C 158.066406 -86.566406 159.75 -77.210938 159.75 -67.109375 C 159.75 -57.179688 158.066406 -47.820312 154.703125 -39.03125 C 151.148438 -30.039062 146.097656 -22.457031 139.546875 -16.28125 C 132.429688 -9.539062 123.910156 -4.394531 113.984375 -0.84375 C 104.253906 2.894531 93.023438 4.765625 80.296875 4.765625 C 79.171875 4.765625 78 4.71875 76.78125 4.625 C 75.570312 4.539062 74.40625 4.40625 73.28125 4.21875 L 73.28125 2.53125 C 80.769531 -0.46875 86.570312 -3.554688 90.6875 -6.734375 C 94.800781 -9.921875 97.328125 -12.078125 98.265625 -13.203125 C 98.453125 -13.203125 98.546875 -13.296875 98.546875 -13.484375 C 98.734375 -13.660156 98.875 -13.796875 98.96875 -13.890625 C 99.0625 -13.984375 99.109375 -14.03125 99.109375 -14.03125 C 101.546875 -16.84375 103.507812 -20.210938 105 -24.140625 C 106.875 -29.015625 108.28125 -35.097656 109.21875 -42.390625 C 110.15625 -49.503906 110.625 -57.835938 110.625 -67.390625 C 110.625 -73.753906 110.15625 -80.957031 109.21875 -89 C 108.46875 -97.050781 107.15625 -103.414062 105.28125 -108.09375 C 103.226562 -113.707031 100.234375 -118.109375 96.296875 -121.296875 C 94.804688 -122.785156 92.65625 -123.90625 89.84375 -124.65625 L 89.5625 -126.90625 C 92.1875 -128.78125 94.710938 -130.414062 97.140625 -131.8125 C 99.578125 -133.21875 101.734375 -134.296875 103.609375 -135.046875 C 105.472656 -134.671875 107.34375 -134.203125 109.21875 -133.640625 C 111.09375 -133.078125 112.960938 -132.515625 114.828125 -131.953125 C 124.378906 -128.585938 132.523438 -123.722656 139.265625 -117.359375 C 146.003906 -111.179688 151.148438 -103.785156 154.703125 -95.171875 Z M 154.703125 -95.171875 "/></g></g></g><g fill="#000000" fill-opacity="1"><g transform="translate(933.015694, 266.728078)"><g><path d="M 76.09375 45.484375 C 78.519531 46.609375 81.976562 47.546875 86.46875 48.296875 C 90.96875 49.046875 94.710938 49.515625 97.703125 49.703125 L 97.703125 59.796875 L 0.28125 59.796875 L 0.28125 49.703125 C 2.53125 49.515625 5.335938 49.234375 8.703125 48.859375 C 12.066406 48.296875 14.6875 47.734375 16.5625 47.171875 C 19.375 46.234375 21.25 44.546875 22.1875 42.109375 C 23.300781 39.679688 23.859375 36.96875 23.859375 33.96875 L 23.859375 -103.890625 C 23.484375 -106.691406 22.738281 -109.21875 21.625 -111.46875 C 20.6875 -113.707031 19 -115.671875 16.5625 -117.359375 C 14.6875 -118.671875 12.253906 -119.703125 9.265625 -120.453125 C 6.265625 -121.203125 3.363281 -121.671875 0.5625 -121.859375 L 0.5625 -131.671875 L 66.265625 -135.328125 L 68.21875 -133.640625 L 68.21875 32.28125 C 68.21875 35.46875 68.96875 38.1875 70.46875 40.4375 C 71.78125 42.863281 73.65625 44.546875 76.09375 45.484375 Z M 154.421875 -117.640625 C 165.273438 -104.347656 170.703125 -87.035156 170.703125 -65.703125 C 170.703125 -46.796875 164.335938 -30.507812 151.609375 -16.84375 C 139.066406 -3.363281 123.066406 3.375 103.609375 3.375 C 94.992188 3.375 87.972656 2.53125 82.546875 0.84375 C 80.484375 0.09375 78.425781 -0.75 76.375 -1.6875 L 76.375 -12.359375 L 78.328125 -13.75 C 80.203125 -12.257812 81.984375 -11.140625 83.671875 -10.390625 C 86.472656 -9.265625 89.5625 -8.703125 92.9375 -8.703125 C 101.914062 -8.703125 109.023438 -13.472656 114.265625 -23.015625 C 119.691406 -32.566406 122.40625 -46.609375 122.40625 -65.140625 C 122.40625 -71.878906 121.847656 -78.335938 120.734375 -84.515625 C 119.796875 -90.691406 118.109375 -96.117188 115.671875 -100.796875 C 113.242188 -105.660156 109.96875 -109.59375 105.84375 -112.59375 C 101.914062 -115.394531 97.050781 -116.796875 91.25 -116.796875 C 86.195312 -116.796875 81.984375 -115.953125 78.609375 -114.265625 L 76.09375 -115.671875 L 76.09375 -124.375 C 80.394531 -127.5625 84.695312 -130.179688 89 -132.234375 C 96.300781 -135.609375 103.507812 -137.296875 110.625 -137.296875 C 129.15625 -137.296875 143.753906 -130.742188 154.421875 -117.640625 Z M 154.421875 -117.640625 "/></g></g></g><g fill="#000000" fill-opacity="1"><g transform="translate(1119.158433, 266.728078)"><g><path d="M 136.453125 -40.71875 L 146.5625 -33.40625 C 143.5625 -28.351562 139.816406 -23.488281 135.328125 -18.8125 C 130.835938 -14.320312 125.785156 -10.484375 120.171875 -7.296875 C 114.179688 -3.929688 108.097656 -1.3125 101.921875 0.5625 C 95.742188 2.25 88.628906 3.09375 80.578125 3.09375 C 67.285156 3.09375 55.867188 1.21875 46.328125 -2.53125 C 36.585938 -6.269531 28.632812 -11.320312 22.46875 -17.6875 C 16.101562 -24.050781 11.421875 -31.632812 8.421875 -40.4375 C 5.242188 -49.039062 3.65625 -58.394531 3.65625 -68.5 C 3.65625 -77.675781 5.335938 -86.476562 8.703125 -94.90625 C 12.066406 -103.320312 16.835938 -110.804688 23.015625 -117.359375 C 29.191406 -123.722656 36.867188 -128.867188 46.046875 -132.796875 C 55.398438 -136.734375 65.785156 -138.703125 77.203125 -138.703125 C 77.953125 -138.703125 78.65625 -138.703125 79.3125 -138.703125 C 79.96875 -138.703125 80.671875 -138.703125 81.421875 -138.703125 L 81.421875 -136.453125 C 74.679688 -134.203125 69.484375 -131.019531 65.828125 -126.90625 C 62.179688 -122.789062 59.609375 -119.09375 58.109375 -115.8125 C 56.617188 -112.539062 55.875 -110.90625 55.875 -110.90625 C 53.625 -104.164062 52.3125 -95.179688 51.9375 -83.953125 L 51.9375 -72.71875 C 51.9375 -54.375 55.492188 -40.335938 62.609375 -30.609375 C 69.722656 -21.054688 80.953125 -16.28125 96.296875 -16.28125 C 104.910156 -16.28125 112.585938 -18.617188 119.328125 -23.296875 C 125.878906 -27.796875 131.585938 -33.601562 136.453125 -40.71875 Z M 91.53125 -115.109375 C 90.21875 -118.859375 88.347656 -121.851562 85.921875 -124.09375 L 85.640625 -126.34375 C 89.003906 -129.53125 92.648438 -131.867188 96.578125 -133.359375 C 100.515625 -134.859375 102.671875 -135.609375 103.046875 -135.609375 C 103.972656 -135.421875 104.859375 -135.1875 105.703125 -134.90625 C 106.546875 -134.625 107.4375 -134.390625 108.375 -134.203125 C 116.425781 -131.023438 123.070312 -126.816406 128.3125 -121.578125 C 133.363281 -116.328125 137.109375 -110.242188 139.546875 -103.328125 C 141.785156 -96.398438 142.90625 -89.097656 142.90625 -81.421875 L 142.90625 -72.71875 L 63.171875 -72.71875 L 63.171875 -84.234375 L 95.171875 -84.515625 C 95.171875 -89.941406 94.894531 -95.460938 94.34375 -101.078125 C 93.78125 -106.691406 92.84375 -111.367188 91.53125 -115.109375 Z M 91.53125 -115.109375 "/></g></g></g></g></g></svg>