<svg xmlns="http://www.w3.org/2000/svg" xmlns:xlink="http://www.w3.org/1999/xlink" width="2000" zoomAndPan="magnify" viewBox="0 0 1500 1499.999933" height="2000" preserveAspectRatio="xMidYMid meet" version="1.0"><defs><g/><clipPath id="15915f738d"><rect x="0" width="814" y="0" height="1057"/></clipPath></defs><rect x="-150" width="1800" fill="#ffffff" y="-149.999993" height="1799.99992" fill-opacity="1"/><rect x="-150" width="1800" fill="#ffffff" y="-149.999993" height="1799.99992" fill-opacity="1"/><g transform="matrix(1, 0, 0, 1, 333, 219)"><g clip-path="url(#15915f738d)"><g fill="#000000" fill-opacity="1"><g transform="translate(0.449243, 898.066693)"><g><path d="M 499.328125 0 L 743.1875 -257.578125 L 479.28125 0 L 378.984375 15.828125 L 396.9375 -2.109375 L 330.421875 -1.0625 L 535.21875 -212.1875 L 585.890625 -211.140625 L 586.953125 -255.46875 L 714.6875 -392.703125 L 575.34375 -264.96875 L 491.9375 -251.25 L 703.078125 -462.390625 L 736.859375 -416.984375 L 744.25 -424.375 L 806.53125 -377.9375 L 795.984375 -368.421875 L 804.421875 -317.75 L 791.75 -306.140625 L 787.53125 -235.421875 L 634.453125 -78.125 L 797.03125 -231.1875 L 806.53125 -162.578125 L 647.125 -3.171875 L 564.78125 -6.328125 L 558.453125 0 Z M 46.453125 -541.5625 L 240.6875 -742.140625 L 304.03125 -754.8125 L 117.171875 -548.953125 L 324.09375 -735.796875 L 381.09375 -740.03125 L 215.359375 -564.78125 L 405.375 -735.796875 L 479.28125 -741.078125 L 268.140625 -527.84375 L 263.921875 -527.84375 L 259.6875 -531 L 80.234375 -339.921875 L 52.78125 -369.484375 L 34.84375 -402.21875 L 49.609375 -414.875 L 41.171875 -480.328125 L 52.78125 -490.890625 Z M 633.40625 -475.046875 L 691.46875 -475.046875 L 707.296875 -474 L 498.28125 -263.921875 L 424.375 -276.59375 L 412.765625 -263.921875 L 332.53125 -267.078125 L 251.25 -254.421875 L 470.828125 -474 L 555.28125 -478.21875 L 554.234375 -477.15625 L 613.34375 -480.328125 L 462.390625 -317.75 Z M 275.53125 -522.5625 L 487.71875 -738.96875 L 572.171875 -740.03125 L 570.0625 -737.921875 L 638.6875 -733.6875 L 507.78125 -601.734375 L 654.515625 -737.921875 L 713.640625 -728.40625 L 517.28125 -525.71875 L 434.9375 -527.84375 L 432.828125 -525.71875 L 371.59375 -535.21875 L 510.9375 -681.96875 L 350.484375 -527.84375 Z M 87.625 -6.328125 L 288.203125 -211.140625 L 358.921875 -218.53125 L 238.578125 -91.84375 L 371.59375 -214.296875 L 451.828125 -217.46875 L 233.296875 1.0625 L 161.515625 -9.5 L 150.96875 1.0625 Z M 159.40625 -263.921875 L 126.6875 -289.25 L 307.203125 -478.21875 L 372.65625 -487.71875 L 213.25 -312.484375 L 389.546875 -475.046875 L 466.609375 -480.328125 L 254.421875 -261.8125 L 172.078125 -267.078125 L 168.90625 -263.921875 Z M 54.890625 -138.296875 L 123.515625 -207.96875 L 203.75 -214.296875 L 202.6875 -213.25 L 291.359375 -224.859375 L 68.625 0 L 53.84375 1.0625 L 55.953125 -58.0625 L 202.6875 -213.25 L 51.734375 -66.5 Z M 228.03125 7.390625 L 450.765625 -213.25 L 513.0625 -220.640625 L 314.59375 2.109375 Z M 731.578125 -738.96875 L 797.03125 -738.96875 L 787.53125 -727.359375 L 598.5625 -528.890625 L 528.890625 -536.28125 Z M 591.171875 -519.390625 L 797.03125 -723.140625 L 794.921875 -650.296875 L 679.859375 -526.78125 Z M 51.734375 -637.625 L 158.34375 -738.96875 L 228.03125 -730.53125 L 55.953125 -556.34375 Z M 262.859375 -516.21875 L 262.859375 -474 L 295.59375 -484.546875 L 122.453125 -301.921875 L 89.734375 -337.8125 Z M 686.1875 -524.671875 L 798.09375 -640.796875 L 797.03125 -564.78125 L 761.140625 -527.84375 Z M 691.46875 1.0625 L 645.015625 6.328125 L 797.03125 -147.796875 L 794.921875 -102.40625 Z M 51.734375 -145.6875 L 50.671875 -211.140625 L 116.125 -210.078125 Z M 795.984375 -527.84375 L 768.53125 -526.78125 L 795.984375 -556.34375 Z M 795.984375 -527.84375 "/></g></g></g></g></g></svg>